<svg width="20" height="20" viewBox="0 0 20 20" fill="none" xmlns="http://www.w3.org/2000/svg">
<path d="M16.6468 1.46759L1.46757 16.6468C0.972904 17.1415 0.972904 17.9435 1.46757 18.4381L1.56185 18.5324C2.05651 19.0271 2.85852 19.0271 3.35319 18.5324L18.5324 3.3532C19.0271 2.85854 19.0271 2.05653 18.5324 1.56187L18.4381 1.46759C17.9435 0.972922 17.1415 0.972923 16.6468 1.46759Z" fill="white"/>
<path d="M1.46759 3.35321L16.6468 18.5324C17.1415 19.0271 17.9435 19.0271 18.4381 18.5324L18.5324 18.4382C19.0271 17.9435 19.0271 17.1415 18.5324 16.6468L3.3532 1.46759C2.85854 0.972925 2.05653 0.972924 1.56187 1.46759L1.46759 1.56187C0.972922 2.05653 0.972923 2.85854 1.46759 3.35321Z" fill="white"/>
</svg>
